<?xml version="1.0" standalone="no"?><!DOCTYPE svg PUBLIC "-//W3C//DTD SVG 1.1//EN" "http://www.w3.org/Graphics/SVG/1.1/DTD/svg11.dtd"><svg t="1755839555099" class="icon" viewBox="0 0 1024 1024" version="1.1" xmlns="http://www.w3.org/2000/svg" p-id="7746" xmlns:xlink="http://www.w3.org/1999/xlink" width="200" height="200"><path d="M496 528m-464 0a464 464 0 1 0 928 0 464 464 0 1 0-928 0Z" fill="#263238" p-id="7747"></path><path d="M496 528m-352 0a352 352 0 1 0 704 0 352 352 0 1 0-704 0Z" fill="#039BE5" p-id="7748"></path><path d="M496 528m-224 0a224 224 0 1 0 448 0 224 224 0 1 0-448 0Z" fill="#E53935" p-id="7749"></path><path d="M496 528m-112 0a112 112 0 1 0 224 0 112 112 0 1 0-224 0Z" fill="#FFEB3B" p-id="7750"></path><path d="M496 1008C232 1008 16 793.6 16 528S232 48 496 48s480 216 480 480-216 480-480 480z m0-928C249.6 80 48 281.6 48 528s201.6 448 448 448 448-201.6 448-448S742.4 80 496 80z" fill="#B3E5FC" p-id="7751"></path><path d="M684.8 339.2l41.6-64c28.8-43.2 49.6-91.2 65.6-140.8 9.6-32 40-54.4 75.2-54.4 20.8 0 40 8 54.4 22.4L684.8 339.2z" fill="#B71C1C" p-id="7752"></path><path d="M921.6 100.8c14.4 16 22.4 35.2 22.4 56 0 35.2-22.4 65.6-56 76.8-49.6 16-96 36.8-140.8 65.6l-64 41.6 238.4-240z" fill="#E53935" p-id="7753"></path><path d="M484.672 516.672l463.872-463.84 22.624 22.608-463.856 463.856z" fill="#BDBDBD" p-id="7754"></path><path d="M915.2 451.2c-8 0-16-1.6-25.6-3.2-49.6-16-100.8-25.6-152-27.2-9.6 0-16-8-16-16 153.6-27.2 252.8-27.2 252.8-27.2l16 1.6c-1.6 12.8-3.2 25.6-11.2 38.4-14.4 20.8-38.4 33.6-64 33.6zM619.2 305.6c-8 0-16-6.4-16-14.4-3.2-44.8-16-94.4-36.8-150.4-12.8-35.2-1.6-72 25.6-92.8 16-12.8 36.8-17.6 56-16 8 51.2-22.4 243.2-28.8 273.6 0-1.6 0 0 0 0z" fill="#18FFFF" p-id="7755"></path><path d="M542.4 481.6c78.4-129.6 118.4-281.6 112-433.6h-16c6.4 148.8-32 297.6-108.8 424l-44.8 44.8c-14.4 14.4 8 38.4 22.4 22.4l46.4-46.4c126.4-76.8 272-115.2 422.4-108.8v-16c-152-4.8-304 33.6-433.6 113.6z" fill="#546E7A" p-id="7756"></path></svg>