<?xml version="1.0" standalone="no"?><!DOCTYPE svg PUBLIC "-//W3C//DTD SVG 1.1//EN" "http://www.w3.org/Graphics/SVG/1.1/DTD/svg11.dtd"><svg t="1755839673543" class="icon" viewBox="0 0 1024 1024" version="1.1" xmlns="http://www.w3.org/2000/svg" p-id="17903" xmlns:xlink="http://www.w3.org/1999/xlink" width="200" height="200"><path d="M0 0.001024h1023.998976v1023.998976H0z" fill="#FEF6F6" opacity=".01" p-id="17904"></path><path d="M360.19164 254.567169a142.591857 142.591857 0 0 0 142.745457 142.335858 142.335858 142.335858 0 1 0 71.372729-265.676534 143.103857 143.103857 0 0 0-142.745458 0 142.335858 142.335858 0 0 0-71.372728 123.340676z" fill="#FF8681" p-id="17905"></path><path d="M502.937097 112.180112a142.591857 142.591857 0 0 1 142.796657 142.335857 142.591857 142.591857 0 0 1-142.796657 142.438258 142.591857 142.591857 0 0 1-142.745457-142.387058 142.540657 142.540657 0 0 1 142.745457-142.335857m0-35.686365a178.431822 178.431822 0 0 0-178.483021 178.022222 178.431822 178.431822 0 0 0 178.483021 177.971022 178.431822 178.431822 0 0 0 178.534222-177.971022 178.431822 178.431822 0 0 0-178.534222-178.022222z" fill="#480662" p-id="17906"></path><path d="M501.298699 382.874241h60.774339a142.182258 142.182258 0 0 0 81.254319-128.307072c0-39.93596-16.537583-76.031924-43.110357-101.887898H501.298699v230.19497z" fill="#E66863" p-id="17907"></path><path d="M305.151695 152.679271L496.281104 28.365796l197.887802 124.313475z" fill="#7CCCF6" p-id="17908"></path><path d="M496.281104 28.365796l197.887802 124.313475H305.151695L496.281104 28.365796m0-28.364772a28.415972 28.415972 0 0 0-15.513585 4.607995L289.58691 128.973695a28.313572 28.313572 0 0 0 15.564785 52.070348h389.017211a28.415972 28.415972 0 0 0 15.155185-52.326348L511.436289 4.35302A28.467172 28.467172 0 0 0 496.281104 0.001024z" fill="#480662" p-id="17909"></path><path d="M694.168906 152.679271L496.281104 28.365796v124.313475z" fill="#47A1DF" p-id="17910"></path><path d="M359.93564 401.255023l-54.783945 534.015466h389.017211l-49.663951-534.015466z" fill="#F2EFE7" p-id="17911"></path><path d="M644.504955 401.255023l49.663951 534.015466H305.151695l54.783945-534.015466h284.569315m0-35.583965H359.98684a35.686364 35.686364 0 0 0-35.532764 31.999968l-54.835146 534.015466a35.532764 35.532764 0 0 0 35.532765 39.219161h389.017211a35.788764 35.788764 0 0 0 35.532764-38.911961l-49.61275-534.015466a35.686364 35.686364 0 0 0-35.583965-32.307168z" fill="#480662" p-id="17912"></path><path d="M691.352909 904.857719l-46.847954-503.602696h-141.311858v503.602696z" fill="#D8D7D6" p-id="17913"></path><path d="M735.896864 407.347817H263.372537a1.843198 1.843198 0 0 1-1.843199-1.843199v-32.204767c0-1.023999 0.870399-1.843198 1.843199-1.843198h472.575527c1.023999 0 1.791998 0.819199 1.791998 1.843198v32.255967c0 0.972799-0.819199 1.791998-1.843198 1.791999z" fill="#7CCCF6" p-id="17914"></path><path d="M719.76888 371.456653a17.919982 17.919982 0 1 1 0 35.839964H279.55172a17.919982 17.919982 0 1 1 0-35.839964h440.21716m0-35.583965H279.55172c-29.64477 0-53.759946 24.012776-53.759946 53.555147 0 29.491171 24.115176 53.503946 53.759946 53.503946h440.21716c29.59357 0 53.708746-24.012776 53.708747-53.503946 0-29.54237-24.063976-53.555146-53.708747-53.555147z" fill="#480662" p-id="17915"></path><path d="M731.903268 988.364836H261.426939a2.867197 2.867197 0 0 1-2.867198-2.867197v-50.43195c0-1.587198 1.279999-2.867197 2.867198-2.867197h470.476329c1.535998 0 2.867197 1.279999 2.867197 2.867197v50.43195a2.867197 2.867197 0 0 1-2.867197 2.867197z" fill="#FF8681" p-id="17916"></path><path d="M706.559293 932.198492a28.159972 28.159972 0 1 1 0 56.166344H286.719713a28.159972 28.159972 0 1 1 0-56.166344h419.83958m0-35.635165H286.719713c-35.225565 0-63.846336 28.620771-63.846336 63.743937S251.545348 1024 286.719713 1024h419.83958c35.276765 0 63.897536-28.569571 63.897537-63.692736 0-35.123165-28.671971-63.743936-63.846337-63.743937z" fill="#480662" p-id="17917"></path><path d="M501.298699 371.610252h236.441363v35.583965H501.247499z" fill="#47A1DF" p-id="17918"></path><path d="M706.559293 932.198492H501.349899v52.121548h219.75018a27.955172 27.955172 0 0 0-14.438386-52.121548z" fill="#E66863" p-id="17919"></path><path d="M474.265126 234.599189h57.343942v57.139143h-57.343942z" fill="#FFF112" p-id="17920"></path><path d="M531.609068 234.599189v57.139143h-57.343942V234.599189h57.343942m0-17.663982h-57.343942a17.663982 17.663982 0 0 0-17.663983 17.663982v57.139143c0 9.72799 7.884792 17.663982 17.663983 17.663983h57.343942a17.663982 17.663982 0 0 0 17.715183-17.663983V234.599189a17.663982 17.663982 0 0 0-17.715183-17.663982z" fill="#480662" p-id="17921"></path><path d="M502.169098 234.599189h29.43997v57.139143h-29.43997z" fill="#FFD60D" p-id="17922"></path><path d="M438.066762 556.544467a58.367942 58.367942 0 0 0 58.419142 58.265542c32.307168 0 58.470342-26.111974 58.470341-58.316741A58.367942 58.367942 0 0 0 496.485904 498.176526c-32.255968 0-58.419142 26.111974-58.419142 58.367941z" fill="#47A1DF" p-id="17923"></path><path d="M496.485904 498.176526a58.367942 58.367942 0 0 1 0 116.582283 58.367942 58.367942 0 0 1-58.419142-58.265541A58.367942 58.367942 0 0 1 496.485904 498.176526m0-13.055987c-39.423961 0-71.577528 31.999968-71.577529 71.372729a71.577528 71.577528 0 0 0 143.206257 0c0-39.372761-32.102368-71.372729-71.628728-71.372729z" fill="#480662" p-id="17924"></path><path d="M439.090761 567.142857l92.313508-57.343943a58.367942 58.367942 0 0 0-8.191992-5.119995l-85.094315 52.838347c0 3.276797 0.3584 6.502393 0.972799 9.625591z m9.77919 23.091177l99.071901-61.439939a58.572741 58.572741 0 0 0-4.812795-7.321592L444.415556 582.810041c1.331199 2.559997 2.815997 5.068795 4.505595 7.423993z" fill="#7CCCF6" p-id="17925"></path><path d="M438.066762 736.768287a58.367942 58.367942 0 0 0 58.419142 58.316742 58.367942 58.367942 0 0 0 0-116.582284c-32.255968 0-58.419142 26.060774-58.419142 58.265542z" fill="#47A1DF" p-id="17926"></path><path d="M496.485904 678.451546c32.307168 0 58.470342 26.111974 58.470341 58.316741a58.367942 58.367942 0 0 1-58.470341 58.316742 58.367942 58.367942 0 0 1-58.419142-58.367942 58.367942 58.367942 0 0 1 58.419142-58.265541m0-13.107187c-39.423961 0-71.577528 32.051168-71.577529 71.423928a71.577528 71.577528 0 0 0 143.206257 0c0-39.372761-32.102368-71.423929-71.628728-71.423928z" fill="#480662" p-id="17927"></path><path d="M439.090761 747.417877l92.313508-57.343943a58.367942 58.367942 0 0 0-8.191992-5.119995l-85.094315 52.787147c0 3.327997 0.3584 6.553593 0.972799 9.727991z m9.77919 23.091176l99.071901-61.439938a58.572741 58.572741 0 0 0-4.812795-7.321593L444.415556 763.033861c1.331199 2.611197 2.815997 5.119995 4.505595 7.475192z" fill="#7CCCF6" p-id="17928"></path><path d="M737.791262 221.850402a11.878388 11.878388 0 0 1-4.300795-22.937577l181.196618-70.451129a11.878388 11.878388 0 1 1 8.652792 22.118377l-181.247819 70.45113a12.083188 12.083188 0 0 1-4.351996 0.819199z m181.247819 114.687885a11.878388 11.878388 0 0 1-2.918397-0.358399l-181.247819-45.004755a11.878388 11.878388 0 1 1 5.734394-23.039977l181.247819 45.055955a11.878388 11.878388 0 0 1-2.815997 23.347176zM286.207714 224.3592a11.775988 11.775988 0 0 1-4.300796-0.8192L100.710299 153.088871a11.878388 11.878388 0 1 1 8.601592-22.118378l181.247818 70.45113a11.878388 11.878388 0 0 1-4.300795 22.937577z m-181.247819 114.687885a11.878388 11.878388 0 0 1-2.867197-23.398377l181.247819-45.055955a11.878388 11.878388 0 1 1 5.734394 23.039977l-181.247819 45.055955a12.492788 12.492788 0 0 1-2.918397 0.3584z" fill="#E66863" p-id="17929"></path></svg>