<?xml version="1.0" encoding="UTF-8"?>
<svg id="_图层_1" data-name="图层 1" xmlns="http://www.w3.org/2000/svg" viewBox="0 0 160 160">
  <defs>
    <style>
      .cls-1 {
        fill: url(#_未命名的渐变_13);
      }
    </style>
    <linearGradient id="_未命名的渐变_13" data-name="未命名的渐变 13" x1="30.92" y1="76.68" x2="124.09" y2="76.68" gradientUnits="userSpaceOnUse">
      <stop offset="0" stop-color="#00326f"/>
      <stop offset="1" stop-color="#00aef6"/>
    </linearGradient>
  </defs>
  <path class="cls-1" d="M76.25,75.46c0,2.51,2.03,4.54,4.54,4.54s4.54-2.03,4.54-4.54-2.03-4.54-4.54-4.54c-.71,0-1.37.18-1.96.46l-13.11-13.11c.29-.6.47-1.26.47-1.97,0-2.51-2.03-4.54-4.54-4.54s-4.54,2.03-4.54,4.54c0,1.95,1.23,3.6,2.96,4.24v23.81c0,1.11-.9,2-2,2h-2.88c-1.1,0-2-.89-2-2v-45.07c0-1.1.89-2,2-2h.63c.53,0,1.04.21,1.42.59l6.98,6.98c1,1.04,2.72,1.38,4.38.13,1.38-1.82.83-3.74-.48-4.66l-8.48-8.48c-.38-.38-.88-.59-1.41-.59h-8.88c-1.1,0-2,.9-2,2v56.82c0,1.1.9,2,2,2h11.84c1.1,0,2-.9,2-2v-29.52c.1-.04.2-.06.29-.1l13.17,13.17c-.25.56-.39,1.18-.39,1.83ZM80.8,73.87c.88,0,1.59.71,1.59,1.59s-.71,1.59-1.59,1.59-1.59-.71-1.59-1.59.71-1.59,1.59-1.59ZM61.65,57.88c-.88,0-1.59-.71-1.59-1.59s.71-1.59,1.59-1.59,1.59.71,1.59,1.59-.71,1.59-1.59,1.59ZM111.01,31.35h-20.16c-1.37,0-2.47,1.11-2.47,2.47s1.11,2.47,2.47,2.47h10.74l-4.76,5.22s-1.54,1.63-1.54,3.13v16.64l-13.71-13.71c.33-.63.53-1.33.53-2.09,0-2.51-2.03-4.54-4.54-4.54s-4.54,2.03-4.54,4.54,2.03,4.54,4.54,4.54c.6,0,1.17-.12,1.69-.33l16.04,16.04v17.86c0,1.52-2.69,3.12-3.72,3.12h-10.77c-1.19,0-1.96-.44-2.52-1s-5.88-6.23-6.37-6.23h-.89c-.54,0-1.14,1.25-1.14,1.61v4.09c0,.3.24.61.42.79s2.75,2.82,4.06,4.13c2.17,2.17,4.06,2.18,5.3,2.18h13.13c3.86,0,8.38-4.26,8.38-8.7v-37.8s-.06-.71.7-1.47c.96-.96,4.2-4.53,4.2-4.53v9.05c0,1.37,1.11,2.47,2.47,2.47s2.47-1.11,2.47-2.47h0v-17.49h0ZM77.56,47.06c-.88,0-1.59-.71-1.59-1.59s.71-1.59,1.59-1.59,1.59.71,1.59,1.59-.71,1.59-1.59,1.59Z"/>
</svg>
