<?xml version="1.0" encoding="UTF-8"?>
<svg id="_图层_1" data-name="图层 1" xmlns="http://www.w3.org/2000/svg" xmlns:xlink="http://www.w3.org/1999/xlink" viewBox="0 0 160 160">
  <defs>
    <style>
      .cls-1 {
        fill: url(#_未命名的渐变_13);
      }
    </style>
    <linearGradient id="_未命名的渐变_13" data-name="未命名的渐变 13" x1="30.92" y1="76.68" x2="124.09" y2="76.68" gradientUnits="userSpaceOnUse">
      <stop offset="0" stop-color="#00326f"/>
      <stop offset="1" stop-color="#00aef6"/>
    </linearGradient>
  </defs>
  <path class="cls-1" d="M76.25,75.46c0,2.51,2.03,4.54,4.54,4.54s4.54-2.03,4.54-4.54-2.03-4.54-4.54-4.54c-.71,0-1.37.18-1.96.46l-13.11-13.11c.29-.6.47-1.26.47-1.97,0-2.51-2.03-4.54-4.54-4.54s-4.54,2.03-4.54,4.54c0,1.95,1.23,3.6,2.96,4.24v23.81c0,1.11-.9,2-2,2h-2.88c-1.1,0-2-.89-2-2v-45.07c0-1.1.89-2,2-2h.63c.53,0,1.04.21,1.42.59l6.98,6.98c1,1.04,2.72,1.38,4.38.13,1.38-1.82.83-3.74-.48-4.66l-8.48-8.48c-.38-.38-.88-.59-1.41-.59h-8.88c-1.1,0-2,.9-2,2v56.82c0,1.1.9,2,2,2h11.84c1.1,0,2-.9,2-2v-29.52c.1-.04.2-.06.29-.1l13.17,13.17c-.25.56-.39,1.18-.39,1.83ZM80.8,73.87c.88,0,1.59.71,1.59,1.59s-.71,1.59-1.59,1.59-1.59-.71-1.59-1.59.71-1.59,1.59-1.59ZM61.65,57.88c-.88,0-1.59-.71-1.59-1.59s.71-1.59,1.59-1.59,1.59.71,1.59,1.59-.71,1.59-1.59,1.59ZM111.01,31.35h-20.16c-1.37,0-2.47,1.11-2.47,2.47s1.11,2.47,2.47,2.47h10.74l-4.76,5.22s-1.54,1.63-1.54,3.13v16.64l-13.71-13.71c.33-.63.53-1.33.53-2.09,0-2.51-2.03-4.54-4.54-4.54s-4.54,2.03-4.54,4.54,2.03,4.54,4.54,4.54c.6,0,1.17-.12,1.69-.33l16.04,16.04v17.86c0,1.52-2.69,3.12-3.72,3.12h-10.77c-1.19,0-1.96-.44-2.52-1s-5.88-6.23-6.37-6.23h-.89c-.54,0-1.14,1.25-1.14,1.61v4.09c0,.3.24.61.42.79s2.75,2.82,4.06,4.13c2.17,2.17,4.06,2.18,5.3,2.18h13.13c3.86,0,8.38-4.26,8.38-8.7v-37.8s-.06-.71.7-1.47c.96-.96,4.2-4.53,4.2-4.53v9.05c0,1.37,1.11,2.47,2.47,2.47s2.47-1.11,2.47-2.47h0v-17.49h0ZM77.56,47.06c-.88,0-1.59-.71-1.59-1.59s.71-1.59,1.59-1.59,1.59.71,1.59,1.59-.71,1.59-1.59,1.59ZM44.57,100.65h2.48v21.11h-3.24l-10.38-17.7v17.7h-2.51v-21.11h3.53l10.12,17.52v-17.52ZM64.28,112.92c0,.58-.03,1.25-.12,1.95h-10.09c.12,3.82,1.81,5.02,4.2,5.02,2.13,0,3.12-.96,3.53-2.65l2.33.52c-.61,2.92-2.94,4.34-5.95,4.34-5.31,0-6.91-3.7-6.91-7.81,0-5.48,3.21-7.84,7.06-7.84,4.2,0,5.95,2.77,5.95,6.47ZM61.54,112.78c0-2.68-1.02-4.17-3.38-4.17-1.98,0-3.91,1.2-4.05,4.17h7.44ZM78.75,106.77h-2.71l-3.79,5.45-3.67-5.45h-2.92l5.02,7.26-5.04,7.73h2.71l3.79-5.89,3.99,5.89h2.89l-5.31-7.79,5.04-7.2ZM87.12,119.92c-1.81,0-2.16-.88-2.16-2.45v-8.57h4.14v-2.13h-4.14v-4.75l-2.65.41v4.34h-2.3v2.13h2.3v8.92c0,3,1.43,4.29,4.23,4.29,1.4,0,2.95-.5,3.67-.99l-.47-1.92c-.64.35-1.72.73-2.62.73ZM105.84,114.44c0,3.97-1.69,5.34-5.07,5.34s-5.13-1.52-5.13-5.42v-13.71h-2.68v13.97c0,4.93,2.27,7.49,7.7,7.49,4.99,0,7.84-2.36,7.84-7.44v-14.03h-2.65v13.79ZM118.76,113.07c-2.1-.44-3.32-.88-3.32-2.42,0-1.14.7-2.1,2.89-2.1s2.77,1.05,3.12,2.77l2.39-.52c-.47-2.65-1.92-4.34-5.48-4.34-3.03,0-5.54,1.49-5.54,4.52,0,3.5,2.95,4.02,5.39,4.52,2.04.41,3.27.7,3.27,2.36s-1.31,2.16-3.12,2.16c-2.65,0-3.32-1.28-3.73-2.89l-2.36.64c.47,3,2.54,4.34,5.98,4.34,3.64,0,5.86-1.69,5.86-4.55,0-3.35-2.59-3.91-5.34-4.49Z"/>
</svg>